<?xml version="1.0" encoding="UTF-8" standalone="no"?>
<!-- Created with Inkscape (http://www.inkscape.org/) -->

<svg
   width="1919.9834"
   height="799.49542"
   viewBox="0 0 507.99559 211.53316"
   version="1.1"
   id="svg1"
   xml:space="preserve"
   inkscape:version="1.3 (0e150ed6c4, 2023-07-21)"
   sodipodi:docname="Caratula.svg"
   inkscape:export-filename="Caratulaplano.svg"
   inkscape:export-xdpi="96"
   inkscape:export-ydpi="96"
   xmlns:inkscape="http://www.inkscape.org/namespaces/inkscape"
   xmlns:sodipodi="http://sodipodi.sourceforge.net/DTD/sodipodi-0.dtd"
   xmlns="http://www.w3.org/2000/svg"
   xmlns:svg="http://www.w3.org/2000/svg"><sodipodi:namedview
     id="namedview1"
     pagecolor="#ffffff"
     bordercolor="#000000"
     borderopacity="0.25"
     inkscape:showpageshadow="2"
     inkscape:pageopacity="0.0"
     inkscape:pagecheckerboard="0"
     inkscape:deskcolor="#d1d1d1"
     inkscape:document-units="mm"
     inkscape:zoom="0.47181621"
     inkscape:cx="1142.394"
     inkscape:cy="456.74565"
     inkscape:window-width="1920"
     inkscape:window-height="1017"
     inkscape:window-x="-8"
     inkscape:window-y="18"
     inkscape:window-maximized="1"
     inkscape:current-layer="layer1" /><defs
     id="defs1" /><g
     inkscape:label="Capa 1"
     inkscape:groupmode="layer"
     id="layer1"
     transform="translate(-0.29006122,-73.878815)"><path
       style="fill:#000000;stroke-width:0.264583"
       d="M 253.43016,285.34691 0.29006122,285.28062 V 179.57972 73.878818 h 0.13167915 0.13167916 l 1.25738337,0.894991 1.2573833,0.894987 1.3786625,0.691698 1.3786625,0.6917 3.5161291,0.982422 3.5161287,0.982423 3.042709,0.0098 3.042708,0.0098 1.984375,-0.616893 1.984375,-0.616898 1.43575,-0.771263 1.43575,-0.771263 0.623202,0.408337 0.623202,0.408339 -0.16039,0.259514 -0.160389,0.259514 0.218104,-0.03789 0.218104,-0.03789 0.311762,0.03133 0.311763,0.03133 -0.01849,1.918228 -0.01849,1.91823 0.595618,1.380732 0.595618,1.380732 0.367876,0.30531 0.367877,0.305311 v 0.247801 0.247802 l -0.305464,-0.188787 -0.305463,-0.188787 0.191454,0.30978 0.191454,0.309779 0.251718,-0.15557 0.251717,-0.15557 0.795101,0.669034 0.795102,0.669034 1.382295,0.39088 1.382295,0.39088 1.5875,0.402001 1.5875,0.402001 1.5875,0.182274 1.5875,0.182274 7.937499,0.03428 7.9375,0.03428 1.852083,0.345667 1.852083,0.345667 0.956739,0.243782 0.956738,0.243782 h 4.281922 4.281921 l 0.846757,0.441344 0.846756,0.441344 1.058334,0.302372 1.058333,0.302372 1.01201,1.968263 1.012007,1.968264 -0.138355,0.877636 -0.138359,0.877637 0.279725,0.613929 0.279726,0.613929 0.566415,0.01276 0.566414,0.01276 1.322917,0.315279 1.322917,0.31528 2.513541,0.0621 2.513542,0.0621 0.396711,-0.209358 0.396708,-0.209357 0.441177,0.399259 0.441177,0.39926 0.551177,-0.294981 0.551175,-0.29498 v -0.387566 -0.387566 l 0.330729,0.0084 0.330729,0.0084 0.513591,0.38846 0.51359,0.388461 h 1.524482 1.524481 l 0.672833,0.306563 0.672833,0.306563 0.512471,-0.46378 0.512472,-0.463781 0.769361,0.16898 0.76936,0.16898 0.339141,-0.408638 0.339137,-0.408637 h 0.664869 0.664866 l 0.586944,-0.633321 0.586939,-0.633321 1.29548,0.13779 1.29548,0.13779 0.39688,0.334434 0.39687,0.334435 1.08951,0.178445 1.08952,0.178446 0.15885,-0.413953 0.15885,-0.413953 1.00059,0.46275 1.0006,0.462749 0.34315,0.264584 0.34315,0.264583 0.58289,0.566921 0.58289,0.56692 0.5865,0.175716 0.5865,0.175711 0.1636,-0.651842 0.16361,-0.651847 -0.23846,-0.487665 -0.23845,-0.487664 0.0269,-0.264583 0.0269,-0.264584 0.33264,-0.59902 0.33265,-0.59902 -0.1638,-0.873156 -0.16381,-0.873156 0.41709,-0.346158 0.4171,-0.346158 v -0.49677 -0.49677 h 0.43805 0.43804 l 0.88487,0.674924 0.88487,0.674923 v 0.463024 0.463024 l 1.12448,1.108517 1.12448,1.108516 1.31417,0.687027 1.31417,0.687027 0.35448,0.506092 0.35448,0.506093 h 0.34589 0.34589 l 0.76284,1.124476 0.76284,1.12448 0.2527,0.18098 0.25269,0.18098 0.18884,-0.11671 0.18884,-0.11671 0.79563,0.79562 0.79563,0.79563 h 0.58714 0.58714 l 1.39364,1.19062 1.39364,1.19063 h 0.27538 0.27538 l 0.22301,0.39848 0.223,0.39848 1.43487,0.92444 1.43487,0.92443 h 0.75688 0.75687 l 0.83955,0.85874 0.83954,0.85873 1.05626,0.26575 1.05626,0.26574 0.36881,0.77262 0.36882,0.77262 0.25601,2.1964 0.25601,2.19641 -0.38833,1.13969 -0.38833,1.13969 0.13217,2.05939 0.13216,2.05939 -0.33267,0.71106 -0.33267,0.71106 -0.41482,0.78721 -0.41481,0.78721 -0.14827,2.52008 -0.14827,2.52009 -0.85891,0.009 -0.85891,0.009 -1.32049,1.30063 -1.32048,1.30063 -0.40029,1.37694 -0.40029,1.37695 v 0.53657 0.53658 l 0.81486,0.58023 0.81487,0.58024 -0.13876,1.62059 -0.13876,1.6206 -0.15905,1.19062 -0.15905,1.19063 0.40899,-0.51359 0.40898,-0.5136 0.0123,-1.0739 0.0123,-1.07391 0.62153,1.19062 0.62153,1.19063 0.9182,0.83405 0.9182,0.83406 0.84027,2.07636 0.84026,2.07636 1.02918,2.11667 1.02919,2.11666 0.69007,1.57634 0.69008,1.57634 0.66439,0.87106 0.66439,0.87105 h 0.24282 0.24281 l -0.13895,-0.3621 -0.13895,-0.3621 0.61027,-0.16345 0.61028,-0.16345 0.59531,-0.004 0.59531,-0.004 v -0.24254 -0.24253 l -0.31264,-0.10422 -0.31265,-0.10421 0.99075,-0.75568 0.99075,-0.75568 h 0.7495 0.7495 l 1.05187,0.8331 1.05188,0.83309 0.33444,0.80743 0.33445,0.80742 -0.16015,1.35223 -0.16016,1.35223 1.08079,1.35082 1.08078,1.35083 -0.12409,3.09075 -0.12408,3.09075 0.42443,0.47924 0.42442,0.47923 -0.38364,-0.32884 -0.38365,-0.32884 h -0.21166 -0.21167 l -0.0423,1.25677 -0.0423,1.25677 -0.10708,-0.86492 -0.10709,-0.86492 -0.23589,0.14579 -0.23589,0.14579 0.14905,0.3884 0.14904,0.3884 h -0.29289 -0.29289 v -0.41867 -0.41867 l -0.79375,-1.80849 -0.79375,-1.80849 -0.001,-1.54315 -0.001,-1.54315 0.44829,-1.25076 0.44829,-1.25077 -0.17122,-0.17122 -0.17123,-0.17122 -0.76948,0.62823 -0.76948,0.62824 -0.46849,0.27452 -0.4685,0.27451 0.46292,1.84215 0.46292,1.84215 -0.13801,1.45521 -0.13801,1.45521 -0.71847,2.24896 -0.71847,2.24896 0.0317,1.39488 0.0317,1.39488 0.38449,0.92022 0.38449,0.92022 h 0.24368 0.24367 l 0.135,1.19768 0.13499,1.19769 1.35463,1.43231 1.35462,1.43231 v 0.37324 0.37323 l -0.30112,0.89937 -0.30113,0.89938 -0.63838,0.8599 -0.63839,0.85989 h -0.35599 -0.35601 l -0.77896,-0.88719 -0.77897,-0.8872 -0.40637,0.29714 -0.40636,0.29714 0.21611,1.31766 0.21611,1.31766 0.0158,0.61093 0.0158,0.61093 -0.26156,-0.16165 -0.26155,-0.16165 0.14447,0.37647 0.14447,0.37648 -0.41208,0.15813 -0.41209,0.15813 0.001,0.73591 0.001,0.7359 -0.44985,1.2551 -0.44985,1.2551 0.2501,0.70117 0.2501,0.70117 1.23234,0.31173 1.23233,0.31173 1.50953,0.907 1.50953,0.907 1.16248,1.50353 1.16249,1.50352 0.69081,0.54339 0.69082,0.5434 0.24087,-0.14887 0.24088,-0.14887 0.48815,0.60284 0.48815,0.60284 0.89352,0.29965 0.89352,0.29965 0.26458,1.45089 0.26459,1.45089 0.46302,0.7002 0.46302,0.7002 v 0.54698 0.54697 l -0.35589,0.8514 -0.35589,0.85139 -0.44282,0.36725 -0.44283,0.36725 -0.47468,-0.42959 -0.47469,-0.42958 -0.46597,-1.47826 -0.46599,-1.47826 -0.91911,-1.56822 -0.9191,-1.56822 -1.37641,-0.87423 -1.37641,-0.87423 -2.38125,-1.35183 -2.38125,-1.35184 -1.19063,-0.62558 -1.19062,-0.62558 -1.26776,-0.48176 -1.26776,-0.48177 -0.36064,-0.56923 -0.36064,-0.56923 -0.42255,-3.83646 -0.42254,-3.83646 -0.0435,-1.28356 -0.0435,-1.28357 -1.08056,0.18675 -1.08057,0.18675 -2.11667,0.32734 -2.11667,0.32735 0.0805,0.34936 0.0804,0.34937 1.16669,3.99198 1.16669,3.99198 0.53879,0.43929 0.5388,0.43928 v 1.60193 1.60192 l -0.54469,0.29151 -0.54468,0.29151 -0.75689,-0.16624 -0.75689,-0.16624 -1.25041,0.56962 -1.2504,0.56963 -0.97073,-0.0926 -0.97073,-0.0926 0.063,1.77341 0.063,1.77342 0.54928,2.00215 0.54929,2.00216 0.009,1.78298 0.009,1.78299 0.24495,2.71666 0.24495,2.71666 1.21225,1.48817 1.21226,1.48817 0.69597,1.21913 0.69596,1.21912 2.25219,2.24896 2.2522,2.24896 1.41869,2.17586 1.4187,2.17586 0.76271,1.84959 0.76271,1.84958 1.1102,1.13393 1.1102,1.13393 1.54831,2.38125 1.54831,2.38125 0.41545,0.59531 0.41545,0.59532 6.27151,-0.002 6.2715,-0.002 0.6559,-1.12244 0.6559,-1.12244 0.3495,-2.11667 0.3495,-2.11666 0.23681,-1.85209 0.23681,-1.85208 0.18554,-0.92604 0.18554,-0.92604 0.50117,-0.35323 0.50117,-0.35321 -0.15957,-0.50277 -0.15958,-0.50277 0.7181,-1.60013 0.71809,-1.60012 -0.27793,-0.58659 -0.27792,-0.5866 -0.32475,-0.86319 -0.32475,-0.86319 0.32987,-1.17817 0.32987,-1.17818 -0.15581,-0.40603 -0.15581,-0.40603 h -0.50508 -0.50507 l -0.35597,-0.42893 -0.35598,-0.42892 -0.0448,-0.82785 -0.0448,-0.82784 -0.0326,-0.1323 -0.0326,-0.13229 -0.25648,0.39688 -0.25648,0.39687 -0.004,-0.43515 -0.004,-0.43515 0.53036,-1.71711 0.53036,-1.71712 0.47448,-0.12408 0.47448,-0.12408 0.31808,-1.06164 0.31807,-1.06164 0.004,-0.76306 0.004,-0.76305 0.15954,-0.59531 0.15954,-0.59532 h 0.33465 0.33466 l 0.3968,-1.20532 0.39682,-1.20533 -0.26068,-1.10978 -0.26068,-1.10977 0.15246,-3.70417 0.15247,-3.70417 0.18174,-1.30156 0.18175,-1.30156 1.11481,-1.07969 1.11481,-1.07969 0.43059,-0.84675 0.43058,-0.84676 v -1.19997 -1.19997 l -0.31607,-1.18175 -0.31607,-1.18176 0.32577,-0.60871 0.32578,-0.60871 0.85019,-0.52137 0.85019,-0.52138 0.79375,-0.31766 0.79375,-0.31766 1.10726,-0.0201 1.10725,-0.0201 0.72177,-0.27441 0.72177,-0.27442 0.22283,0.22284 0.22283,0.22283 -0.17131,1.63908 -0.17132,1.63908 h -0.32679 -0.32679 l -0.29068,0.35026 -0.29068,0.35025 0.3112,0.31121 0.3112,0.3112 h 0.50456 0.50456 l -0.18983,0.46302 -0.18983,0.46302 -0.13863,1.1348 -0.13864,1.13479 1.12507,0.96302 1.12507,0.96302 0.69644,0.0449 0.69644,0.0449 1.05834,-0.35289 1.05833,-0.35288 1.15526,-0.004 1.15526,-0.004 1.59145,-1.47339 1.59144,-1.4734 0.27949,0.27948 0.27947,0.27948 0.67798,-0.76508 0.67798,-0.76509 1.5875,0.21688 1.5875,0.21689 1.48896,0.0223 1.48896,0.0223 0.33588,0.40471 0.33588,0.40471 -0.27941,0.61323 -0.27941,0.61323 -1.90749,0.15992 -1.90748,0.15992 -0.0964,0.0963 -0.0963,0.0964 -0.13295,1.0409 -0.13295,1.0409 -0.40543,0.29711 -0.40542,0.29711 0.14892,0.38811 0.14893,0.3881 -0.38106,0.31625 -0.38107,0.31626 -0.22629,-0.0538 -0.22628,-0.0538 -1.03372,0.21406 -1.03372,0.21406 -0.6671,0.3461 -0.6671,0.34609 -0.22367,-0.13823 -0.22367,-0.13823 -0.5422,1.22572 -0.54219,1.22573 -0.31144,-0.11216 -0.31144,-0.11215 -0.48683,0.25087 -0.48682,0.25089 h -1.15992 -1.15991 l -1.52826,0.99584 -1.52826,0.99585 -0.48417,0.54766 -0.48417,0.54766 -0.21695,3.79226 -0.21694,3.79225 -0.18023,0.44514 -0.18022,0.44514 0.82384,0.42602 0.82385,0.42603 -0.18119,0.31946 -0.18119,0.31946 -0.39542,0.46058 -0.39542,0.46057 0.68259,0.53693 0.6826,0.53693 0.2629,1.38374 0.26289,1.38375 0.43983,2.91042 0.43984,2.91042 0.60671,1.5875 0.60672,1.5875 0.1698,1.99917 0.16979,1.99917 -0.39572,1.1216 -0.39572,1.1216 -0.17503,1.37714 -0.17503,1.37715 -0.2007,0.26458 -0.2007,0.26459 -0.26796,1.4552 -0.26797,1.45521 0.0614,0.92604 0.0613,0.92604 0.33265,0.52931 0.33266,0.5293 1.03922,0.74701 1.03922,0.747 0.39769,0.76905 0.39769,0.76904 25.38127,0.008 25.38126,0.008 1.60211,0.16745 1.60211,0.16746 v -0.26988 -0.26988 l -0.39687,-0.32938 -0.39688,-0.32937 v -0.51713 -0.51712 l 0.7734,-0.7734 0.7734,-0.77339 h 1.06146 1.06146 l 0.63785,-0.24251 0.63784,-0.24251 0.30885,-1.67572 0.30885,-1.67572 0.68075,-1.98438 0.68075,-1.98437 0.49686,-1.85209 0.49685,-1.85208 0.68597,-1.6851 0.68597,-1.6851 0.10118,-1.57095 0.10118,-1.57094 0.38007,-1.10958 0.38007,-1.10958 0.40744,-1.32292 0.40744,-1.32291 0.13809,-0.99219 0.13809,-0.99219 h -0.23394 -0.23394 l -1.74781,1.32292 -1.74782,1.32292 h -0.38286 -0.38286 v -0.61582 -0.61582 l 1.61756,-2.97113 1.61756,-2.97113 -0.16224,-0.81115 -0.16223,-0.81115 2.00164,-3.8307 2.00163,-3.83071 -0.0841,-0.0841 -0.0841,-0.0841 -1.71918,1.16374 -1.71917,1.16375 -2.11667,1.81116 -2.11667,1.81116 -0.46902,0.17266 -0.46902,0.17266 -0.49481,-0.49481 -0.49482,-0.49482 -0.35908,0.3431 -0.35908,0.3431 -1.91823,0.18457 -1.91823,0.18457 v -0.29143 -0.29144 h 0.39688 0.39687 v -0.26458 -0.26459 h -0.41248 -0.4125 l 0.16619,-0.2689 0.16619,-0.26889 0.24327,0.15035 0.24327,0.15034 -0.15691,-0.40891 -0.15692,-0.40891 0.62297,-0.24952 0.62296,-0.24952 -0.34634,-0.0168 -0.34634,-0.0168 0.15365,-0.24862 0.15365,-0.24862 1.29237,0.3838 1.29236,0.38378 0.65583,-0.24934 0.65584,-0.24935 2.34553,-2.26914 2.34554,-2.26914 0.34447,0.13132 0.34447,0.13133 -0.14501,-0.23463 -0.14501,-0.23463 1.30057,-0.83457 1.30057,-0.83458 0.42982,-0.65598 0.42983,-0.656 0.29384,0.18161 0.29383,0.1816 -0.18782,-0.30391 -0.18783,-0.3039 0.71941,-0.9432 0.71941,-0.94319 0.73732,-0.38128 0.73731,-0.38128 h 0.82003 0.82002 l 0.77151,-0.39896 0.77151,-0.39896 -0.15031,-0.39172 -0.15032,-0.39171 0.3181,-1.32599 0.3181,-1.32599 h 0.48716 0.48716 l 0.14877,-0.24071 0.14876,-0.24071 -0.16145,-0.42075 -0.16146,-0.42075 h -0.38353 -0.38352 l 0.47798,-0.83035 0.47797,-0.83036 0.79375,-0.49522 0.79375,-0.49523 0.72783,0.15603 0.72783,0.15602 1.16647,0.62022 1.16648,0.62022 0.15622,-0.15622 0.15622,-0.15622 v 0.45658 0.45659 l 0.20135,-0.12444 0.20136,-0.12445 0.48102,0.35173 0.48101,0.35173 -0.29313,0.54773 -0.29314,0.54773 -0.68222,0.17122 -0.68222,0.17123 -0.18294,-0.29602 -0.18295,-0.29601 -0.84865,1.47752 -0.84864,1.47753 -0.14984,0.59699 -0.14983,0.59699 1.27597,0.66075 1.27597,0.66075 0.32843,-0.11509 0.32842,-0.1151 0.92835,0.30639 0.92834,0.30638 v 0.76426 0.76425 l 0.46302,0.99943 0.46302,0.99944 0.81211,0.82265 0.81211,0.82266 1.83372,0.17375 1.83373,0.17376 0.99091,0.1586 0.99091,0.15859 0.4643,-0.19607 0.4643,-0.19608 0.66146,-0.10313 0.66145,-0.10313 1.13769,-0.0928 1.13769,-0.0927 0.64825,-0.609 0.64826,-0.609 -0.009,-0.28461 -0.009,-0.28461 -0.52697,0.6328 -0.52698,0.63279 -0.12939,-0.12938 -0.12938,-0.12938 0.56304,-0.71578 0.56304,-0.71579 -0.14041,-0.1404 -0.14042,-0.14041 -0.5512,0.55121 -0.55122,0.55122 h -0.12662 -0.12662 l 0.30492,-0.66924 0.30493,-0.66923 1.15475,-0.29077 1.15475,-0.29077 -0.14301,-0.143 -0.143,-0.14301 0.42955,-0.47463 0.42952,-0.47464 -0.15607,-0.40673 -0.15608,-0.40673 h -1.06664 -1.06663 v -0.91774 -0.91774 l 0.34019,0.13054 0.34017,0.13054 0.0375,-0.46957 0.0375,-0.46957 0.2567,-0.92604 0.25667,-0.92605 0.0271,0.20454 0.0271,0.20454 0.66545,-0.43603 0.66546,-0.43603 -0.0701,-0.42997 -0.0701,-0.42996 0.48956,0.0838 0.48959,0.0838 -0.18534,-0.29988 -0.18534,-0.29989 0.4895,-0.37182 0.48953,-0.37182 0.31136,0.10912 0.31139,0.10911 0.31904,-0.38441 0.31903,-0.38441 0.38846,0.3224 0.38846,0.32239 0.43633,0.0624 0.43635,0.0624 0.81354,0.15094 0.81351,0.15094 0.57555,0.53618 0.57552,0.53619 v 0.73052 0.73053 l 0.31518,0.31519 0.31519,0.3152 -0.34427,1.34334 -0.3443,1.34335 0.55827,0.59424 0.55827,0.59424 v 0.30169 0.30169 l 0.94959,0.17814 0.94959,0.17815 1.76239,-0.15421 1.76239,-0.15421 1.97868,-0.27687 1.97872,-0.27687 0.66712,-0.66928 0.66714,-0.66929 -0.28913,-0.19027 -0.28911,-0.19027 -0.15957,-0.82131 -0.15957,-0.82131 0.30977,-0.30978 0.30977,-0.30977 -0.29046,-0.4651 -0.29046,-0.4651 -0.18655,-0.84941 -0.18659,-0.8494 0.48366,-0.59712 0.48366,-0.59712 0.33073,-0.0265 0.33073,-0.0265 0.26458,-0.0397 0.26458,-0.0397 v -0.38187 -0.38187 l -0.552,-0.38663 -0.552,-0.38663 0.28689,-0.53602 0.28686,-0.53601 0.75801,-0.53975 0.758,-0.53975 0.13087,0.13086 0.13088,0.13087 0.33468,-0.40326 0.33467,-0.40327 h 0.72898 0.72895 l 0.33227,0.40036 0.33229,0.40037 0.29543,-0.0348 0.29543,-0.0348 0.42252,0.0314 0.42254,0.0314 0.5035,0.46584 0.50353,0.46585 0.33073,0.5889 0.33072,0.58889 v 1.4588 1.4588 h -0.23317 -0.23318 l -0.29599,1.17549 -0.29599,1.1755 v 0.68765 0.68765 l 0.52001,0.55818 0.52002,0.55817 -0.12084,0.1955 -0.12081,0.1955 0.97806,0.18349 0.97809,0.18349 0.4849,0.55909 0.4849,0.5591 0.45294,0.10389 0.45294,0.1039 0.8599,0.13752 0.85989,0.13752 v 0.23564 0.23564 h 1.05833 1.05834 v 0.28452 0.28452 l 2.18281,-0.0756 2.18281,-0.0756 0.45935,0.21485 0.45934,0.21485 0.26768,-0.7041 0.2677,-0.70411 -0.53522,-1.17487 -0.5352,-1.17488 h -0.60193 -0.60193 l -0.29088,0.29087 -0.29086,0.29086 -0.55581,-0.1764 -0.55578,-0.17641 v -0.51134 -0.51133 h 0.49832 0.49831 l 0.12645,-0.66146 0.12644,-0.66146 h -0.30961 -0.30962 l -0.51358,-0.37906 -0.51358,-0.37906 0.31003,-0.31464 0.31007,-0.31464 -0.13994,-0.36463 -0.13991,-0.36463 h 0.54184 0.54187 l 0.18999,-0.30744 0.19003,-0.30743 -0.57394,-0.46475 -0.57393,-0.46474 0.41844,-0.41845 0.41844,-0.41844 h -0.15891 -0.15891 l 0.60944,-1.09569 0.60944,-1.09568 0.7212,-0.0769 0.7212,-0.0769 v 0.24653 0.24653 h 0.79375 0.79375 v -0.26458 -0.26458 h 0.28348 0.28347 l 0.37799,0.37797 0.37798,0.37798 v 0.26565 0.26565 l 0.48506,0.15396 0.48506,0.15395 0.0628,0.3269 0.0628,0.32689 0.13454,2.05052 0.13454,2.05053 h -0.30112 -0.3011 l 0.14494,0.2345 0.14494,0.2345 -0.52882,0.13829 -0.5288,0.13828 0.24789,0.65195 0.24786,0.65195 -0.29818,0.29818 -0.29816,0.29818 h 0.35261 0.35261 l 0.48001,0.55346 0.48,0.55346 0.28049,-0.17336 0.28051,-0.17335 0.15801,0.41176 0.15801,0.41176 0.63386,-0.15909 0.63389,-0.15909 v 0.29327 0.29326 h 1.16231 1.16232 l 0.15229,0.39688 0.15229,0.39687 0.33904,0.005 0.33904,0.005 0.59531,0.62803 0.59531,0.62804 v 0.26512 0.26513 l 0.4185,0.1606 0.41851,0.1606 h 4.21169 4.21172 v -0.77813 -0.77814 l -0.29482,-0.18221 -0.29483,-0.18221 0.13391,-0.99842 0.13393,-0.99843 -0.90572,-0.10573 -0.90573,-0.10574 0.1143,0.29785 0.11428,0.29785 -1.29662,0.26561 -1.29662,0.26561 v -0.60732 -0.60731 l -0.39687,0.15229 -0.39688,0.1523 v -0.32862 -0.3286 l -3.31231,0.12759 -3.3123,0.1276 0.1573,-0.49555 0.15727,-0.49555 -0.81373,-0.28367 -0.81373,-0.28367 v -0.37099 -0.37099 h 0.29327 0.29326 l -0.16602,-0.66146 -0.166,-0.66146 h 0.21341 0.21341 l 1.3044,1.32431 1.30439,1.32431 2.05293,-0.17121 2.0529,-0.17121 0.33693,0.27802 0.33692,0.27802 1.25677,-0.14261 1.25677,-0.14261 v -0.23018 -0.23017 h 1.54339 1.5434 l 0.15478,-0.15479 0.15478,-0.15478 -0.26885,-0.77126 -0.26886,-0.77125 h -1.01685 -1.01682 l -0.20746,-0.33073 -0.20743,-0.33073 0.0678,-0.41387 0.0678,-0.41387 -0.66071,-0.35361 -0.66075,-0.35361 0.13888,-0.22471 0.13888,-0.22471 h -0.22389 -0.22389 l -0.0363,-0.48188 -0.0363,-0.48188 0.56705,0.0189 0.56703,0.0189 0.0899,-0.44259 0.0899,-0.44259 -0.61079,-0.0866 -0.61076,-0.0866 -0.0901,-0.63755 -0.0901,-0.63754 0.42082,-0.2355 0.42082,-0.2355 v -0.498 -0.498 l 0.76843,-0.54718 0.76846,-0.54719 h 0.42217 0.42219 v -0.26458 -0.26458 h 0.66146 0.66146 v 0.23513 0.23514 l 0.92281,0.17312 0.92282,0.17313 0.30742,0.58392 0.30742,0.58393 0.24249,0.15874 0.24251,0.15874 0.35597,1.03189 0.35595,1.03188 -0.37349,0.21158 -0.37348,0.21159 v 0.37763 0.37763 l -0.66823,0.43783 -0.66824,0.43784 0.17471,0.5504 0.17468,0.5504 0.62076,0.48829 0.62074,0.48828 -0.0611,0.31551 -0.0611,0.31552 1.10387,0.0803 1.10387,0.0804 0.31757,0.38266 0.31758,0.38267 h 0.61347 0.61343 l 0.17018,0.27535 0.17018,0.27534 0.50689,-0.16088 0.50692,-0.16088 v 0.78327 0.78327 l 0.3924,0.15058 0.3924,0.15059 -0.17245,0.44942 -0.17246,0.44942 0.63995,-0.17121 0.63995,-0.17121 0.19844,-0.004 0.19843,-0.004 v -0.60305 -0.60305 l -0.52916,-0.3814 -0.52917,-0.3814 v -0.47076 -0.47076 h 0.26458 0.26459 v -1.79933 -1.79934 l 0.33073,-0.71214 0.33073,-0.71214 0.30866,-0.002 0.30869,-0.002 0.0882,-0.19843 0.0882,-0.19844 1.32291,-0.46433 1.32292,-0.46433 0.83957,0.001 0.83961,0.001 0.7883,0.66331 0.7883,0.66331 0.55491,1.06463 0.55493,1.06463 v 0.65331 0.65331 h 0.26459 0.26458 v 1.48053 1.48053 l 0.45392,0.76843 0.45392,0.76842 h 0.1919 0.19193 l 0.14499,-0.23459 0.14499,-0.23458 0.91779,-0.17218 0.91779,-0.17218 0.66862,-0.34689 0.66863,-0.34689 -0.17237,-0.17239 -0.17241,-0.17238 h 0.68774 0.68773 l 0.16719,-0.5268 0.16719,-0.5268 -0.16497,-0.26695 -0.16499,-0.26695 h -0.66146 -0.66146 l 0.16354,0.26458 0.16351,0.26459 h -0.41248 -0.41249 l -0.18042,-0.002 -0.18042,-0.002 0.0664,-1.43387 0.0664,-1.43388 -0.56018,-0.2998 -0.5602,-0.2998 0.15579,-0.49079 0.15576,-0.49078 -0.23051,-0.14246 -0.2305,-0.14247 0.0214,-1.65544 0.0214,-1.65544 0.79147,-0.40717 0.79148,-0.40718 0.34801,-0.46302 0.348,-0.46302 h 1.30792 1.30791 v 0.26458 0.26459 h 0.54951 0.54952 l 0.75985,0.75984 0.75984,0.75985 0.18454,0.7353 0.18455,0.73529 -0.30329,0.48564 -0.30327,0.48564 v 0.61214 0.61213 l -0.23077,0.25135 -0.23074,0.25136 -0.16925,1.12448 -0.16926,1.12448 h 1.32604 1.32607 v 0.29289 0.29289 l 0.39687,-0.1523 0.39688,-0.15229 v 0.23788 0.23787 l 0.57531,0.0845 0.57533,0.0846 0.44421,0.79375 0.44421,0.79375 -0.12181,0.33073 -0.12179,0.33073 h 0.43677 0.43678 l -0.0777,0.4458 -0.0777,0.44581 0.67675,0.38693 0.67678,0.38692 0.97686,-0.18326 0.9769,-0.18326 v -0.64947 -0.64947 h -0.29546 -0.29544 l 0.14386,-0.55007 0.14383,-0.55007 -0.37756,0.14489 -0.37757,0.14489 V 195.68 195.26057 l -0.52916,0.13838 -0.52917,0.13838 v -1.03357 -1.03356 h 0.66146 0.66146 v -0.52916 -0.52917 h -0.64207 -0.64206 l -0.1075,0.46302 -0.1075,0.46302 -0.20651,-1.25677 -0.20653,-1.25677 h -0.23455 -0.23453 v -0.78545 -0.78544 l 0.39986,0.15344 0.39987,0.15345 -0.16359,-0.42633 -0.1636,-0.42634 h 0.42519 0.42519 v -0.29289 -0.29289 l 0.36393,0.13966 0.36393,0.13966 0.29187,-0.64052 0.29183,-0.64052 1.92389,0.008 1.92392,0.008 0.69824,0.61516 0.69826,0.61516 0.18267,0.83169 0.18266,0.83169 h 0.34539 0.34536 l -0.13512,1.68358 -0.13515,1.68359 0.29789,0.18411 0.29792,0.18412 0.003,0.4474 0.003,0.44741 0.69654,0.32337 0.69657,0.32338 0.22741,-0.14055 0.22743,-0.14056 v 0.2802 0.2802 h 0.30575 0.30576 l 0.90276,0.68858 0.90278,0.68857 -0.1419,0.36976 -0.14189,0.36976 h 0.47678 0.47675 l 0.19844,-0.19844 0.19844,-0.19844 h 0.20396 0.20397 l 0.70003,-0.83194 0.70004,-0.83195 v -0.24641 -0.24642 l -0.66146,-0.6214 -0.66146,-0.62141 v -0.33293 -0.33292 l 0.52917,-0.16795 0.52917,-0.16795 v -0.34819 -0.34819 l -0.4916,-0.12855 -0.4916,-0.12855 -0.40698,0.22776 -0.40701,0.22777 -0.14319,-0.37317 -0.14322,-0.37317 0.10782,-0.85177 0.10779,-0.85176 0.47096,-0.52916 0.47098,-0.52915 0.85138,-0.36035 0.8514,-0.36036 h 0.54335 0.54332 l 1.03354,0.68396 1.03355,0.68395 0.70477,1.76344 0.70479,1.76344 0.29261,0.35462 0.2926,0.35462 0.33639,-0.46003 0.33637,-0.46003 0.36933,0.30651 0.3693,0.3065 0.89572,-0.006 0.89575,-0.006 0.59531,0.0197 0.59532,0.0197 v 0.24814 0.24814 h 0.79404 0.79404 l 0.99189,1.03102 0.9919,1.03101 1.57038,2.60701 1.57038,2.607 1.03196,1.30918 1.03195,1.30918 0.73827,1.46895 0.73827,1.46894 0.19624,0.92604 0.19621,0.92604 0.16132,0.26459 0.16129,0.26458 0.4604,1.32292 0.46043,1.32291 0.009,0.94162 0.009,0.94162 -0.38846,0.51359 -0.38846,0.51359 -0.008,1.02459 -0.008,1.02458 -0.37621,-0.31221 -0.37618,-0.31221 -0.17211,-1.0187 -0.17211,-1.0187 -0.36934,-0.48743 -0.3693,-0.48742 -0.008,0.54474 -0.008,0.54475 -0.38847,0.51359 -0.38846,0.51359 -0.008,-2.0333 -0.008,-2.0333 0.28033,-0.73737 0.28035,-0.73736 -1.18229,-1.0658 -1.18232,-1.06579 -0.28062,-0.52917 -0.28061,-0.52916 -0.008,1.10107 -0.008,1.10106 -0.44423,-0.0652 -0.44427,-0.0652 -0.19862,-0.5067 -0.19862,-0.5067 -0.0185,-1.21707 -0.0185,-1.21708 -0.79375,-1.09574 -0.79375,-1.09574 v -0.31979 -0.31979 l -0.25599,0.25599 -0.25598,0.25598 0.49609,1.59399 0.4961,1.59398 0.19058,1.3118 0.19057,1.3118 0.25895,0.49828 0.25892,0.49827 0.37883,2.01527 0.37881,2.01527 0.10498,1.19062 0.10502,1.19063 -0.37971,-0.51359 -0.37967,-0.51359 v -0.46299 -0.46298 l -0.30123,-0.18615 -0.3012,-0.18616 0.20156,1.03044 0.20153,1.03043 -0.0276,3.25688 -0.0276,3.25688 -0.43407,3.35771 -0.43408,3.3577 0.16113,1.91876 0.16111,1.91876 0.40648,0.97285 0.40648,0.97285 0.28461,2.61628 0.28464,2.61627 -0.15862,0.15861 -0.15859,0.1586 v -0.70555 -0.70556 h -0.29006 -0.29004 l 0.18529,2.71198 0.18531,2.71198 0.1709,1.5875 0.17089,1.5875 8.59896,0.19525 8.59896,0.19526 18.25625,-0.0533 18.25625,-0.0533 22.0145,0.23113 22.01449,0.23112 0.13907,0.36239 0.13904,0.36239 -0.0608,18.16161 -0.0609,18.16161 -0.79375,0.0206 -0.79375,0.0206 z m 136.68863,-38.4062 -0.15388,-0.76935 0.59494,-0.3184 0.59497,-0.31841 1.71402,-0.49017 1.71405,-0.49017 0.62963,-0.41255 0.62963,-0.41254 v -0.50143 -0.50143 l -0.1606,-0.41851 -0.1606,-0.41852 h -0.36026 -0.36028 l 0.15229,-0.39687 0.1523,-0.39688 h -0.96997 -0.96996 l 0.1465,0.23705 0.1465,0.23705 -0.39383,0.75514 -0.39383,0.75514 -0.003,0.34963 -0.003,0.34962 -0.33072,0.31527 -0.33073,0.31526 -0.7351,0.47058 -0.73506,0.47059 -0.25712,-0.1589 -0.2571,-0.15891 v -0.51355 -0.51355 h 0.21143 0.21143 l 0.31774,-0.87868 0.31773,-0.87868 v -0.977 -0.97699 l -0.26458,-0.52557 -0.26458,-0.52558 -0.26459,-0.52558 -0.26458,-0.52557 v -0.91402 -0.91402 l -0.28263,-0.17467 -0.28262,-0.17467 0.14202,-0.37011 0.14203,-0.37011 h -0.37925 -0.37928 l -0.28612,-0.53464 -0.28612,-0.53463 0.18539,-0.29999 0.18542,-0.3 -0.2816,0.17403 -0.28159,0.17403 -0.40569,-0.15568 -0.40568,-0.15568 -0.0812,-0.41752 -0.0812,-0.41753 -0.72602,-0.0316 -0.72599,-0.0316 0.0271,0.27324 0.0271,0.27325 -0.18328,0.56254 -0.18328,0.56253 -0.61248,0.32779 -0.61249,0.32779 -0.21203,1.49093 -0.21204,1.49092 -0.013,0.43912 -0.013,0.43911 -0.19844,0.2003 -0.19843,0.20029 v 0.86633 0.86633 l -0.26459,0.16352 -0.26458,0.16353 v 0.51355 0.51355 h -0.26458 -0.26459 v 0.39687 0.39688 h 0.26459 0.26458 v 0.39687 0.39688 h 0.26458 0.26459 v 1.29052 1.29052 l -0.43826,0.36313 -0.43823,0.36312 0.76896,0.16714 0.76898,0.16713 3.10224,0.0313 3.10224,0.0313 z m 16.20562,0.45424 0.19476,-0.31511 -0.27686,-0.0923 -0.27686,-0.0923 0.34476,-1.00069 0.34477,-1.00069 -0.25349,-1.12821 -0.2535,-1.12821 0.0476,-0.57256 0.0476,-0.57255 -0.0412,-0.97329 -0.0411,-0.97329 -0.39687,-0.39687 -0.39688,-0.39688 v -0.31179 -0.31179 l -0.39687,0.1523 -0.39688,0.15229 -0.009,-1.90992 -0.009,-1.90993 -0.40068,-2.51354 -0.40066,-2.51354 -0.21746,-3.25122 -0.21744,-3.25122 -0.14488,-0.14488 -0.14489,-0.14488 -0.33234,0.61798 -0.33235,0.61797 -0.10885,2.11666 -0.10885,2.11667 -0.52101,1.71979 -0.52102,1.71979 -0.24985,0.81254 -0.24984,0.81254 v 0.82388 0.82389 l 0.28019,0.73696 0.28019,0.73697 -0.41248,0.30161 -0.41249,0.30162 v 1.13978 1.13979 l -0.29461,1.74146 -0.29461,1.74146 -0.23456,0.25136 -0.23455,0.25135 v 0.5865 0.58649 l 0.32795,0.10932 0.32798,0.10933 -0.0805,0.93499 -0.0806,0.935 0.40146,0.40144 0.40142,0.40144 -0.16377,0.16379 -0.16381,0.16379 h 2.93891 2.93889 z m -49.64059,-0.42572 v -0.47625 l -0.21058,-0.25135 -0.21059,-0.25136 -0.33607,-1.05833 -0.33607,-1.05833 -0.27797,-0.66146 -0.27798,-0.66146 -0.2337,-0.45943 -0.23371,-0.45943 v -0.79734 -0.79734 h -0.26458 -0.26458 v -1.96876 -1.96876 l -0.23882,-0.14758 -0.23878,-0.14758 0.37107,-1.233 0.37111,-1.233 v -0.20758 -0.20757 l -0.79208,-0.46789 -0.79209,-0.46789 -0.16883,-1.2728 -0.16886,-1.2728 -0.2378,-0.14698 -0.23784,-0.14699 0.16987,-0.90541 0.16983,-0.90541 h -0.42632 -0.4263 v -0.39688 -0.39687 h -0.47003 -0.47001 l 0.10348,-1.08516 0.10351,-1.08517 -0.28131,-0.56848 -0.28128,-0.56848 -0.0828,-0.52613 -0.0828,-0.52613 -0.45998,-0.0886 -0.45998,-0.0886 v 0.32495 0.32495 l -1.05833,1.00677 -1.05833,1.00677 v 0.26155 0.26155 l -0.59532,0.63485 -0.59531,0.63484 -0.29451,-0.10201 -0.29448,-0.10202 -0.14843,0.91464 -0.14843,0.91464 -0.45048,0.68751 -0.45048,0.68752 -0.006,2.97188 -0.006,2.97187 -0.20564,0.39688 -0.20563,0.39687 -0.19336,0.52917 -0.19333,0.52916 0.0488,0.31078 0.0487,0.31078 -0.27159,0.16786 -0.2716,0.16786 v 1.11613 1.11614 l 0.38751,0.55328 0.38754,0.55329 -0.16704,0.16705 -0.16705,0.16704 h 0.43267 0.43267 l -0.15229,0.39688 -0.1523,0.39687 h 0.31179 0.31178 l 0.37799,0.37798 0.37798,0.37797 v 0.63274 0.63273 l 0.96687,1.1296 0.96689,1.12959 0.55446,0.22418 0.55449,0.22417 4.29948,0.0168 4.29948,0.0168 z m -67.46875,-0.042 v -0.21818 l -0.61849,-0.15523 -0.61846,-0.15522 -0.70446,-0.55412 -0.70442,-0.55412 v -0.22648 -0.22648 l 0.41576,-0.41578 0.41577,-0.41577 h 1.30402 1.30403 v -0.93434 -0.93435 l -0.34957,-0.13414 -0.34957,-0.13414 0.11042,-0.75226 0.11041,-0.75227 -0.29001,-0.17924 -0.29001,-0.17924 v -1.15149 -1.15149 l -0.79783,-0.67132 -0.79782,-0.67132 0.0821,-1.40634 0.0821,-1.40634 0.17322,-0.28026 0.1732,-0.28027 -0.10637,-0.84059 -0.10639,-0.8406 h 0.25202 0.25202 v -1.00542 -1.00541 l -0.32412,-0.32411 -0.32411,-0.3241 0.3393,-0.5433 0.3393,-0.54329 -0.27861,-0.3357 -0.2786,-0.3357 -0.16219,-2.5584 -0.16222,-2.55839 0.2576,-0.32632 0.2576,-0.32632 0.14753,-1.05833 0.14756,-1.05834 0.18351,-0.84833 0.18355,-0.84835 -1.22055,-0.30734 -1.22055,-0.30733 0.0797,-3.00306 0.0797,-3.00306 -0.34512,-0.13244 -0.34513,-0.13244 -0.0214,0.32243 -0.0214,0.32243 -0.33925,-0.76866 -0.33927,-0.76865 -0.2625,0.46906 -0.26249,0.46905 -0.70443,-0.46155 -0.7044,-0.46154 0.51433,-0.82636 0.51432,-0.82635 0.81333,-0.25316 0.81336,-0.25315 v -0.20987 -0.20987 l -1.78594,-0.0484 -1.78594,-0.0484 -3.24116,0.0611 -3.24114,0.0611 v -0.80645 -0.80646 h -0.91043 -0.91043 l -0.18113,-0.29308 -0.18114,-0.29309 -1.00318,0.16042 -1.00318,0.16041 -0.11799,-0.33035 -0.118,-0.33035 -0.17194,0.15777 -0.17194,0.15777 0.66155,1.49588 0.66155,1.49587 h 0.15302 0.15303 l 0.48532,-0.25973 0.48532,-0.25974 0.12597,0.32826 0.12596,0.32826 -0.28012,1.3675 -0.28013,1.3675 0.34317,0.4135 0.34318,0.41351 0.60232,-0.15118 0.60232,-0.15117 0.15214,0.24616 0.15214,0.24616 -0.81874,1.11331 -0.81873,1.1133 0.82775,1.15262 0.82775,1.15263 v 0.28747 0.28748 h -0.27288 -0.27289 l -0.1523,-0.39688 -0.15229,-0.39687 h -0.23628 -0.23627 v 0.79599 0.79599 l -0.52917,-0.33047 -0.52917,-0.33047 v -0.46552 -0.46552 h -0.26234 -0.26234 l -0.31398,0.50276 -0.31398,0.50277 -0.31558,-0.1211 -0.31557,-0.12109 -0.15283,0.39824 -0.15282,0.39825 -0.80736,0.4175 -0.80736,0.41751 v -0.27968 -0.27969 l 0.37485,-0.14384 0.37486,-0.14385 0.7033,-1.06275 0.70329,-1.06275 -0.14629,-0.1463 -0.14629,-0.14629 -1.32874,-0.12768 -1.32873,-0.12767 v -0.0922 -0.0922 l 0.52818,-0.86629 0.52817,-0.86629 0.001,-0.68026 10e-4,-0.68026 -1.46688,-2.93506 -1.46688,-2.93505 -0.40537,-0.33642 -0.40537,-0.33642 -0.24036,0.37986 -0.24037,0.37986 -0.004,1.10725 -0.004,1.10726 -0.26899,0.70752 -0.269,0.70751 0.17674,1.75711 0.17673,1.7571 0.8464,0.80477 0.84639,0.80476 0.3047,1.3119 0.3047,1.3119 0.13456,1.75125 0.13456,1.75124 -0.38735,0.32147 -0.38735,0.32147 -1.26906,0.37276 -1.26907,0.37276 0.63131,-0.48938 0.6313,-0.48939 -0.25646,-0.1585 -0.25646,-0.1585 0.11437,-0.77926 0.11437,-0.77926 -0.58839,-0.18674 -0.58839,-0.18675 -0.22477,0.35904 -0.22476,0.35904 0.52238,0.0846 0.52238,0.0846 v 0.22954 0.22955 l -0.99219,-0.15855 -0.99219,-0.15854 -0.39674,-0.0233 -0.39675,-0.0233 -0.0887,0.66146 -0.0887,0.66146 -0.24978,0.25896 -0.24978,0.25896 0.0738,-0.57305 0.0738,-0.57304 -0.26459,-0.008 -0.26458,-0.008 -0.13229,-0.94357 -0.13229,-0.94356 -0.26459,-0.0574 -0.26458,-0.0574 -0.84311,1.5875 -0.84312,1.5875 -0.0168,0.8275 -0.0168,0.8275 -0.39249,0.32574 -0.39249,0.32573 -0.28143,-0.74021 -0.28143,-0.74022 -0.58445,0.64531 -0.58444,0.64532 -0.34329,1.32291 -0.34328,1.32292 -0.34393,0.34863 -0.34392,0.34862 0.18794,0.97429 0.18795,0.97429 0.59314,2.77813 0.59315,2.77812 0.32922,0.79375 0.32922,0.79375 0.19748,1.05834 0.19749,1.05833 0.23198,0.28093 0.23198,0.28094 -0.04,1.17427 -0.04,1.17428 0.29818,1.81873 0.29818,1.81873 0.5323,0.56661 0.5323,0.56661 -0.24291,0.39278 -0.24291,0.39279 9.84623,0.1404 9.84623,0.14039 5.49012,0.0403 5.4901,0.0403 z m 14.22702,-0.39173 0.98652,-0.64536 0.71673,-0.17435 0.71676,-0.17436 0.30504,-0.36755 0.30503,-0.36754 -0.15181,-0.39565 -0.15182,-0.39564 -0.83976,0.16795 -0.83976,0.16795 0.12967,-0.88353 0.12967,-0.88353 -0.7552,-0.63546 -0.75517,-0.63545 v -0.49004 -0.49003 l -0.26459,-0.16352 -0.26458,-0.16352 v -0.63023 -0.63023 l -0.26458,-0.16352 -0.26459,-0.16352 v -0.62232 -0.62233 l -0.79375,-0.66789 -0.79375,-0.6679 v -0.39834 -0.39834 l -0.28022,-0.17318 -0.28019,-0.17318 0.0817,-0.70233 0.0818,-0.70234 -0.72761,-0.0837 -0.7276,-0.0837 v 0.67903 0.67903 h -0.4104 -0.41036 l -0.43961,0.99219 -0.4396,0.99218 -0.0476,2.51355 -0.0475,2.51354 -0.28768,1.27042 -0.28766,1.27042 -0.40232,0.57439 -0.4023,0.57439 v 0.47388 0.47389 l 0.32822,0.52557 0.32821,0.52558 h 3.11703 3.11703 z m 19.50161,0.18233 -0.1946,-0.46302 -0.13573,-0.62988 -0.1357,-0.62987 -0.46334,-0.12117 -0.46334,-0.12116 -0.16068,-0.80339 -0.16066,-0.80339 v -1.12515 -1.12516 l -0.36589,-0.30364 -0.36587,-0.30365 0.13862,-1.72691 0.13861,-1.72691 -0.35493,-0.71382 -0.35494,-0.71382 -0.79261,-0.85989 -0.79264,-0.8599 -0.5434,-0.009 -0.54341,-0.009 -0.58152,-0.48545 -0.5815,-0.48545 -0.17479,-0.69638 -0.17478,-0.69637 h -0.23233 -0.23236 l -0.39867,-0.95414 -0.39868,-0.95416 0.14732,-0.23834 0.1473,-0.23834 -0.4204,-0.16132 -0.4204,-0.16133 0.28969,-0.34906 0.2897,-0.34906 -0.29753,-0.55594 -0.29752,-0.55594 -1.05482,0.0622 -1.05484,0.0622 -0.27627,0.3329 -0.27628,0.33291 0.17473,0.28273 0.17473,0.28272 -0.35039,-0.0727 -0.35039,-0.0727 0.063,0.32121 0.063,0.32121 -0.39672,-0.15223 -0.39669,-0.15223 0.18121,0.47227 0.18124,0.47227 -0.45656,-0.1752 -0.45654,-0.17519 0.17992,0.29113 0.17994,0.29113 -0.31856,0.19687 -0.31853,0.19687 -0.13967,1.0413 -0.13965,1.0413 0.42431,0.35215 0.42431,0.35214 v 0.76136 0.76135 h 0.26459 0.26458 v 4.36563 4.36562 h 0.27112 0.27114 l 0.26347,0.7276 0.2635,0.72761 0.23696,0.52917 0.23694,0.52916 0.35134,0.8599 0.35137,0.85989 h 5.1231 5.12307 z m 9.78326,-0.0594 0.93009,-0.5224 0.40087,0.15383 0.4009,0.15384 v -0.2929 -0.29289 h 0.34412 0.34411 l 0.71216,-0.33073 0.71215,-0.33073 0.003,-0.19843 0.003,-0.19844 h 0.33806 0.33808 l 0.42929,-0.50139 0.42931,-0.50139 0.0605,-1.28455 0.0605,-1.28455 -0.0353,-0.39687 -0.0354,-0.39688 -0.76174,-0.79375 -0.76171,-0.79375 -0.49381,-0.40337 -0.49382,-0.40337 -1.38441,-0.65496 -1.38438,-0.65496 -0.005,-0.44741 -0.005,-0.4474 -0.26459,-0.16353 -0.26458,-0.16352 v -0.65239 -0.65239 l -0.63577,-0.24172 -0.63576,-0.24171 -0.2014,-0.32586 -0.20138,-0.32587 0.37412,0.14362 0.37415,0.14363 -0.17542,-2.28148 -0.17539,-2.28147 -0.023,-0.46302 -0.023,-0.46302 h -0.66146 -0.66146 v 0.39687 0.39688 l -0.19843,0.002 -0.19844,0.002 -1.32292,1.26322 -1.32291,1.26322 -0.79375,0.97839 -0.79375,0.9784 -0.33073,0.006 -0.33073,0.006 v 0.52917 0.52916 h -0.26459 -0.26458 v 0.76875 0.76875 l 0.59531,1.14948 0.59532,1.14948 0.34771,0.36664 0.34774,0.36663 -0.2477,0.24772 -0.24773,0.24771 0.29686,0.64036 0.29687,0.64035 0.19843,0.002 0.19844,0.002 v 0.37482 0.37483 l 0.19844,0.0882 0.19844,0.0882 0.4441,0.79375 0.4441,0.79375 0.54809,0.0846 0.54808,0.0845 v 0.24619 0.24618 h 0.54806 0.54806 l 0.31183,0.3419 0.31184,0.3419 0.29422,0.518 0.29422,0.51799 -0.28885,0.66146 -0.28882,0.66146 -0.26998,0.19438 -0.26995,0.19439 0.98411,0.004 0.98415,0.004 z m -152.91711,-0.75558 -1.32292,-0.44181 0.094,-1.19063 0.094,-1.19062 0.27144,-0.51048 0.27144,-0.51047 0.0453,-2.40674 0.0453,-2.40674 0.20736,-0.33553 0.20736,-0.33551 -0.27548,-0.33194 -0.27547,-0.33193 -0.0594,-0.91325 -0.0593,-0.91325 0.34999,-0.64881 0.34999,-0.64881 -0.30252,-0.10084 -0.30253,-0.10084 v -0.4457 -0.4457 l -0.66146,-0.97342 -0.66146,-0.97343 v -0.41091 -0.41091 h -0.24675 -0.24675 l -0.16037,0.50527 -0.16037,0.50528 -0.3835,0.31827 -0.38349,0.31828 -0.17135,-0.44653 -0.17135,-0.44653 0.60594,-1.29372 0.60595,-1.29372 -0.63617,-0.5297 -0.63616,-0.52971 -0.19844,-0.009 -0.19844,-0.009 v 0.81852 0.81852 l -0.50078,0.13096 -0.50078,0.13095 -0.16366,0.81831 -0.16366,0.81831 0.15881,0.84656 0.15882,0.84656 -0.52855,0.3702 -0.52854,0.37021 -0.27771,1.50228 -0.27771,1.50228 -0.51047,1.00327 -0.51048,1.00328 -0.5734,1.92932 -0.5734,1.92932 -1.29444,1.30127 -1.29444,1.30127 -0.16936,1.00274 -0.16937,1.00274 -0.12701,0.46302 -0.12702,0.46302 6.83085,-0.0212 6.83085,-0.0212 z m 196.80104,-6.1965 -0.15632,-1.38906 -0.2145,-0.42025 -0.21452,-0.42024 0.14176,-0.54208 0.14177,-0.54209 -0.28763,-0.17776 -0.28763,-0.17777 v -0.64584 -0.64585 h -0.40518 -0.40519 l -0.14798,-0.46302 -0.14798,-0.46302 -0.22876,-0.52917 -0.22876,-0.52916 -0.1442,-1.5875 -0.14419,-1.5875 -0.13753,-1.56631 -0.13753,-1.56631 -0.52385,-0.36692 -0.52385,-0.36693 v -0.38187 -0.38187 h 0.29541 0.29543 l -0.12644,-0.66146 -0.12645,-0.66146 h 0.22789 0.22791 v -0.92604 -0.92604 h 0.26458 0.26459 v -0.52917 -0.52916 h 0.26458 0.26458 v -0.38883 -0.38883 l 0.52917,-0.94214 0.52917,-0.94213 v -0.75484 -0.75485 l -0.50687,-0.13255 -0.50686,-0.13254 -0.28689,0.28689 -0.28688,0.2869 -0.0204,-1.44198 -0.0201,-1.44198 -0.11461,-0.52916 -0.11465,-0.52917 -0.16851,-2.77813 -0.16854,-2.77812 -0.34705,-0.20544 -0.34708,-0.20543 0.14181,-0.36959 0.14185,-0.36958 -0.53237,-0.28492 -0.53237,-0.28491 -0.61264,0.23655 -0.61262,0.23655 -0.57692,0.62338 -0.57693,0.62339 0.23559,5.15937 0.23556,5.15938 -0.14187,7.11351 -0.14187,7.11352 -0.2444,0.64277 -0.24437,0.64277 0.008,1.63642 0.008,1.63642 0.32232,0.41497 0.32232,0.41497 0.85989,0.37722 0.8599,0.37723 v 0.19999 0.2 h 0.4989 0.49892 l 0.75785,0.39524 0.75787,0.39525 -0.26458,0.0116 -0.26459,0.0116 1.05834,0.91218 1.05833,0.91217 0.58282,0.004 0.58285,0.004 z m -37.87201,-5.02708 0.0468,-1.12448 -0.0338,-0.99219 -0.0338,-0.99219 h 0.28527 0.28525 l -0.12928,-1.34529 -0.12925,-1.3453 0.36018,-0.13822 0.36021,-0.13822 v -0.36857 -0.36856 l 0.33072,-5.3e-4 0.33073,-5.3e-4 0.0525,-1.49408 0.0525,-1.49408 0.27818,-0.27818 0.27818,-0.27818 v -0.77664 -0.77663 l 0.66146,-0.61302 0.66146,-0.61302 v -0.21881 -0.21881 l 0.52917,-0.3814 0.52916,-0.3814 v -0.29746 -0.29746 l 0.51131,-0.46274 0.51133,-0.46274 -0.15301,-0.39872 -0.153,-0.39872 0.23698,-0.17173 0.23702,-0.17174 0.60526,-1.1121 0.60529,-1.1121 -0.34071,-0.57611 -0.34068,-0.57612 0.33073,-0.11977 0.33073,-0.11977 v -0.62379 -0.6238 l 0.26459,-0.16352 0.26458,-0.16352 v -1.85973 -1.85972 l -0.99219,0.15836 -0.99219,0.15835 -0.38184,-0.24844 -0.38182,-0.24845 0.29797,-0.65401 0.298,-0.654 -0.1587,-0.15869 -0.15869,-0.15869 h -0.86633 -0.86632 l -0.16352,0.26458 -0.16354,0.26458 h -0.51355 -0.51353 v 0.29327 0.29327 l -0.68363,-0.17158 -0.68363,-0.17158 0.15877,0.2569 0.15878,0.25691 -0.25265,0.15614 -0.25262,0.15614 -0.22749,-0.4065 -0.22749,-0.4065 -0.84712,0.16943 -0.84709,0.16942 v 0.33512 0.33512 l -0.63645,0.15973 -0.63646,0.15974 0.12758,1.12572 0.12756,1.12571 0.22646,0.52917 0.22648,0.52917 0.42849,2.45034 0.4285,2.45034 -0.16886,0.27323 -0.16886,0.27322 0.32586,0.39264 0.32584,0.39263 -0.2076,2.83692 -0.20761,2.83693 0.045,3.50642 0.0449,3.50642 0.21966,1.17575 0.21966,1.17575 -0.36007,0.13817 -0.36005,0.13817 v 0.40877 0.40877 l 0.32822,0.52557 0.32821,0.52558 h 0.46554 0.46553 z m -17.77381,-5.49011 V 228.66 h 0.26458 0.26459 v -0.52917 -0.52917 h 0.26458 0.26458 v -0.47641 -0.47642 l 0.33073,-0.71214 0.33073,-0.71215 0.19844,-0.002 0.19844,-0.002 v -0.57326 -0.57327 l 0.1725,0.17252 0.17251,0.17252 0.91038,-1.91436 0.91038,-1.91436 0.27808,-0.52037 0.27807,-0.52037 -0.0291,-1.71218 -0.0292,-1.71218 0.2141,-0.28099 0.21408,-0.28099 -0.0246,-0.79263 -0.0246,-0.79263 -1.05834,-0.35906 -1.05833,-0.35905 -0.72761,0.01 -0.7276,0.01 v -0.24689 -0.24689 h -0.74083 -0.74084 l -0.25135,-0.23366 -0.25135,-0.23367 -1.24545,-0.17772 -1.24545,-0.17772 0.0548,1.24685 0.0548,1.24684 0.7276,0.73169 0.7276,0.73169 v 0.42384 0.42384 l -0.78441,0.15688 -0.78443,0.15689 0.15893,1.15942 0.15891,1.15942 h -0.46114 -0.46114 l 0.17642,0.45976 0.17642,0.45976 0.14169,1.72305 0.14166,1.72305 0.40574,1.11954 0.40571,1.11955 -0.15804,0.79019 -0.15803,0.79019 0.42817,0.23962 0.42818,0.23961 -0.14714,0.56263 -0.14713,0.56263 h 0.37211 0.37211 v 0.26458 0.26459 h 0.52916 0.52917 z m -190.97374,-26.83896 0.60602,-0.64521 1.58453,-0.8858 1.58452,-0.8858 0.22954,-0.65269 0.22954,-0.6527 -1.29707,-2.11577 -1.29708,-2.11577 -0.47287,-1.19063 -0.47288,-1.19062 -0.48463,-0.79375 -0.48462,-0.79375 -0.54857,-1.63609 -0.54858,-1.63609 0.16387,-0.81935 0.16387,-0.81935 1.14791,-1.01043 1.14791,-1.01043 1.79397,-0.59949 1.79397,-0.5995 1.78594,-0.13737 1.78594,-0.13738 v -0.90789 -0.90788 l -0.29159,-0.54485 -0.2916,-0.54484 0.32247,-0.69453 0.32246,-0.69453 0.23371,-0.45943 0.23371,-0.45944 v -0.67335 -0.67335 l 0.33073,-0.12691 0.33073,-0.12692 v -1.6916 -1.6916 l -0.19843,0.12264 -0.19844,0.12265 v -0.3109 -0.3109 l -0.97197,-1.35836 -0.97197,-1.35837 -0.19805,-0.23074 -0.19804,-0.23074 -0.83519,-0.0973 -0.83519,-0.0972 -0.20862,-0.12894 -0.20863,-0.12894 -0.16811,1.22652 -0.16812,1.22652 -0.79305,1.67851 -0.79306,1.67851 v 0.21437 0.21438 l -0.79375,0.76046 -0.79375,0.76046 0.002,0.54581 0.002,0.54581 -0.80032,0.66146 -0.80031,0.66146 -0.12191,0.64201 -0.12191,0.64201 -0.24105,0.15174 -0.24104,0.15174 -0.40457,0.97173 -0.40456,0.97173 v 1.21823 1.21823 l -0.17975,1.0639 -0.17974,1.06391 -1.01069,0.63802 -1.01069,0.63802 -0.15894,0.25717 -0.15895,0.25718 -0.11448,3.52386 -0.11449,3.52385 0.75853,2.26502 0.75854,2.26501 1.10971,1.76988 1.10971,1.76988 h 0.22432 0.22432 z"
       id="path2" /></g></svg>
